<?xml version="1.0" encoding="UTF-8"?>
<svg xmlns="http://www.w3.org/2000/svg" xmlns:xlink="http://www.w3.org/1999/xlink" width="299pt" height="103pt" viewBox="0 0 299 103" version="1.1">
<g id="surface1">
<path style=" stroke:none;fill-rule:nonzero;fill:rgb(30.980392%,30.980392%,30.980392%);fill-opacity:1;" d="M 55.570312 39.605469 C 53.238281 39.605469 51.203125 39.1875 49.464844 38.347656 C 47.757812 37.511719 46.4375 36.414062 45.496094 35.050781 C 44.558594 33.65625 44 32.15625 43.828125 30.554688 L 44.871094 30.554688 C 45.046875 31.773438 45.480469 32.996094 46.175781 34.214844 C 46.90625 35.4375 48.039062 36.484375 49.570312 37.355469 C 51.132812 38.226562 53.132812 38.664062 55.570312 38.664062 C 57.519531 38.664062 59.242188 38.296875 60.738281 37.5625 C 62.234375 36.796875 63.382812 35.785156 64.179688 34.53125 C 64.980469 33.273438 65.382812 31.878906 65.382812 30.34375 C 65.382812 28.355469 64.929688 26.785156 64.023438 25.636719 C 63.121094 24.449219 61.988281 23.578125 60.632812 23.019531 C 59.308594 22.460938 57.519531 21.886719 55.257812 21.292969 C 52.890625 20.664062 50.996094 20.039062 49.570312 19.410156 C 48.140625 18.78125 46.925781 17.824219 45.914062 16.53125 C 44.941406 15.207031 44.453125 13.429688 44.453125 11.195312 C 44.453125 9.589844 44.890625 8.089844 45.757812 6.695312 C 46.664062 5.265625 47.933594 4.132812 49.570312 3.296875 C 51.238281 2.457031 53.132812 2.039062 55.257812 2.039062 C 57.414062 2.039062 59.277344 2.425781 60.839844 3.191406 C 62.40625 3.957031 63.625 4.933594 64.496094 6.121094 C 65.398438 7.273438 65.992188 8.492188 66.269531 9.785156 L 65.226562 9.785156 C 64.980469 8.773438 64.476562 7.742188 63.710938 6.695312 C 62.945312 5.648438 61.851562 4.777344 60.421875 4.082031 C 58.996094 3.347656 57.273438 2.980469 55.257812 2.980469 C 53.484375 2.980469 51.847656 3.332031 50.351562 4.027344 C 48.890625 4.691406 47.707031 5.648438 46.800781 6.90625 C 45.933594 8.125 45.496094 9.558594 45.496094 11.195312 C 45.496094 13.21875 45.949219 14.839844 46.855469 16.0625 C 47.792969 17.246094 48.941406 18.136719 50.300781 18.730469 C 51.65625 19.289062 53.464844 19.863281 55.726562 20.457031 C 58.09375 21.082031 59.972656 21.710938 61.363281 22.339844 C 62.789062 22.933594 63.988281 23.875 64.964844 25.164062 C 65.9375 26.421875 66.425781 28.148438 66.425781 30.34375 C 66.425781 31.878906 66.007812 33.359375 65.171875 34.792969 C 64.371094 36.222656 63.15625 37.390625 61.519531 38.296875 C 59.882812 39.167969 57.902344 39.605469 55.570312 39.605469 Z M 72.171875 25.113281 C 72.171875 22.148438 72.746094 19.585938 73.894531 17.421875 C 75.042969 15.222656 76.660156 13.550781 78.75 12.398438 C 80.835938 11.214844 83.21875 10.621094 85.898438 10.621094 C 89.132812 10.621094 91.867188 11.476562 94.09375 13.183594 C 96.355469 14.859375 97.867188 17.003906 98.632812 19.617188 L 98.632812 10.988281 L 99.625 10.988281 L 99.625 39.238281 L 98.632812 39.238281 L 98.632812 30.605469 C 97.867188 33.222656 96.355469 35.382812 94.09375 37.09375 C 91.867188 38.765625 89.132812 39.605469 85.898438 39.605469 C 83.21875 39.605469 80.835938 39.027344 78.75 37.878906 C 76.660156 36.691406 75.042969 35.019531 73.894531 32.855469 C 72.746094 30.65625 72.171875 28.078125 72.171875 25.113281 Z M 98.632812 25.113281 C 98.632812 22.425781 98.078125 20.074219 96.964844 18.050781 C 95.882812 15.992188 94.371094 14.40625 92.421875 13.289062 C 90.507812 12.136719 88.335938 11.5625 85.898438 11.5625 C 83.324219 11.5625 81.082031 12.101562 79.167969 13.183594 C 77.289062 14.265625 75.828125 15.835938 74.78125 17.890625 C 73.738281 19.914062 73.21875 22.320312 73.21875 25.113281 C 73.21875 27.902344 73.738281 30.328125 74.78125 32.382812 C 75.828125 34.40625 77.289062 35.960938 79.167969 37.039062 C 81.082031 38.121094 83.324219 38.664062 85.898438 38.664062 C 88.335938 38.664062 90.507812 38.105469 92.421875 36.988281 C 94.371094 35.835938 95.882812 34.25 96.964844 32.226562 C 98.078125 30.167969 98.632812 27.796875 98.632812 25.113281 Z M 141.476562 10.359375 C 144.605469 10.359375 147.179688 11.386719 149.199219 13.445312 C 151.21875 15.503906 152.226562 18.609375 152.226562 22.757812 L 152.226562 39.238281 L 151.234375 39.238281 L 151.234375 22.652344 C 151.234375 18.957031 150.363281 16.148438 148.625 14.230469 C 146.886719 12.277344 144.5 11.300781 141.476562 11.300781 C 138.308594 11.300781 135.75 12.433594 133.804688 14.703125 C 131.855469 16.933594 130.878906 20.195312 130.878906 24.484375 L 130.878906 39.238281 L 129.890625 39.238281 L 129.890625 22.652344 C 129.890625 18.957031 129.019531 16.148438 127.28125 14.230469 C 125.539062 12.277344 123.15625 11.300781 120.128906 11.300781 C 116.929688 11.300781 114.355469 12.433594 112.40625 14.703125 C 110.492188 16.933594 109.535156 20.195312 109.535156 24.484375 L 109.535156 39.238281 L 108.492188 39.238281 L 108.492188 10.988281 L 109.535156 10.988281 L 109.535156 18.46875 C 110.230469 15.746094 111.519531 13.726562 113.398438 12.398438 C 115.3125 11.039062 117.554688 10.359375 120.128906 10.359375 C 122.773438 10.359375 125.035156 11.109375 126.914062 12.609375 C 128.828125 14.074219 130.046875 16.304688 130.566406 19.304688 C 131.195312 16.304688 132.480469 14.074219 134.429688 12.609375 C 136.414062 11.109375 138.761719 10.359375 141.476562 10.359375 Z M 161.824219 19.617188 C 162.589844 17.003906 164.085938 14.859375 166.3125 13.183594 C 168.574219 11.476562 171.324219 10.621094 174.558594 10.621094 C 177.238281 10.621094 179.621094 11.214844 181.710938 12.398438 C 183.796875 13.550781 185.414062 15.222656 186.5625 17.421875 C 187.710938 19.585938 188.285156 22.148438 188.285156 25.113281 C 188.285156 28.078125 187.710938 30.65625 186.5625 32.855469 C 185.414062 35.019531 183.796875 36.691406 181.710938 37.878906 C 179.621094 39.027344 177.238281 39.605469 174.558594 39.605469 C 171.324219 39.605469 168.574219 38.765625 166.3125 37.09375 C 164.085938 35.382812 162.589844 33.222656 161.824219 30.605469 L 161.824219 52.527344 L 160.832031 52.527344 L 160.832031 10.988281 L 161.824219 10.988281 Z M 187.242188 25.113281 C 187.242188 22.320312 186.71875 19.914062 185.675781 17.890625 C 184.632812 15.835938 183.152344 14.265625 181.238281 13.183594 C 179.359375 12.101562 177.132812 11.5625 174.558594 11.5625 C 172.125 11.5625 169.933594 12.136719 167.984375 13.289062 C 166.070312 14.40625 164.554688 15.992188 163.441406 18.050781 C 162.363281 20.074219 161.824219 22.425781 161.824219 25.113281 C 161.824219 27.796875 162.363281 30.167969 163.441406 32.226562 C 164.554688 34.25 166.070312 35.835938 167.984375 36.988281 C 169.933594 38.105469 172.125 38.664062 174.558594 38.664062 C 177.132812 38.664062 179.359375 38.121094 181.238281 37.039062 C 183.152344 35.960938 184.632812 34.40625 185.675781 32.382812 C 186.71875 30.328125 187.242188 27.902344 187.242188 25.113281 Z M 194.542969 25.113281 C 194.542969 22.148438 195.117188 19.585938 196.265625 17.421875 C 197.414062 15.222656 199.03125 13.550781 201.117188 12.398438 C 203.207031 11.214844 205.589844 10.621094 208.269531 10.621094 C 211.503906 10.621094 214.234375 11.476562 216.460938 13.183594 C 218.722656 14.859375 220.238281 17.003906 221.003906 19.617188 L 221.003906 10.988281 L 221.992188 10.988281 L 221.992188 39.238281 L 221.003906 39.238281 L 221.003906 30.605469 C 220.238281 33.222656 218.722656 35.382812 216.460938 37.09375 C 214.234375 38.765625 211.503906 39.605469 208.269531 39.605469 C 205.589844 39.605469 203.207031 39.027344 201.117188 37.878906 C 199.03125 36.691406 197.414062 35.019531 196.265625 32.855469 C 195.117188 30.65625 194.542969 28.078125 194.542969 25.113281 Z M 221.003906 25.113281 C 221.003906 22.425781 220.445312 20.074219 219.332031 18.050781 C 218.253906 15.992188 216.738281 14.40625 214.792969 13.289062 C 212.878906 12.136719 210.703125 11.5625 208.269531 11.5625 C 205.695312 11.5625 203.449219 12.101562 201.535156 13.183594 C 199.65625 14.265625 198.195312 15.835938 197.152344 17.890625 C 196.109375 19.914062 195.585938 22.320312 195.585938 25.113281 C 195.585938 27.902344 196.109375 30.328125 197.152344 32.382812 C 198.195312 34.40625 199.65625 35.960938 201.535156 37.039062 C 203.449219 38.121094 205.695312 38.664062 208.269531 38.664062 C 210.703125 38.664062 212.878906 38.105469 214.792969 36.988281 C 216.738281 35.835938 218.253906 34.25 219.332031 32.226562 C 220.445312 30.167969 221.003906 27.796875 221.003906 25.113281 Z M 242.96875 10.359375 C 246.273438 10.359375 248.988281 11.386719 251.109375 13.445312 C 253.230469 15.503906 254.292969 18.609375 254.292969 22.757812 L 254.292969 39.238281 L 253.300781 39.238281 L 253.300781 22.652344 C 253.300781 18.957031 252.378906 16.148438 250.535156 14.230469 C 248.691406 12.277344 246.167969 11.300781 242.96875 11.300781 C 239.628906 11.300781 236.949219 12.398438 234.929688 14.597656 C 232.914062 16.757812 231.90625 19.96875 231.90625 24.222656 L 231.90625 39.238281 L 230.859375 39.238281 L 230.859375 0.523438 L 231.90625 0.523438 L 231.90625 18.414062 C 232.566406 15.800781 233.886719 13.8125 235.871094 12.453125 C 237.855469 11.054688 240.21875 10.359375 242.96875 10.359375 Z M 27.992188 51.246094 L 27.992188 75.152344 C 27.992188 79.582031 26.824219 82.949219 24.496094 85.25 C 22.199219 87.519531 18.964844 88.652344 14.789062 88.652344 C 10.300781 88.652344 6.734375 87.414062 4.089844 84.9375 C 1.445312 82.460938 0.121094 78.851562 0.121094 74.109375 L 11.550781 74.109375 C 11.550781 75.609375 11.796875 76.671875 12.28125 77.300781 C 12.769531 77.890625 13.429688 78.1875 14.265625 78.1875 C 14.960938 78.1875 15.5 77.960938 15.882812 77.507812 C 16.265625 77.054688 16.457031 76.269531 16.457031 75.152344 L 16.457031 51.246094 Z M 31.429688 73.53125 C 31.429688 70.429688 31.949219 67.742188 32.992188 65.476562 C 34.070312 63.171875 35.535156 61.429688 37.378906 60.242188 C 39.222656 59.023438 41.292969 58.414062 43.589844 58.414062 C 45.5 58.414062 47.152344 58.8125 48.546875 59.617188 C 49.9375 60.382812 51 61.445312 51.730469 62.808594 L 51.730469 58.777344 L 63.261719 58.777344 L 63.261719 88.285156 L 51.730469 88.285156 L 51.730469 84.257812 C 51 85.617188 49.9375 86.699219 48.546875 87.5 C 47.152344 88.269531 45.5 88.652344 43.589844 88.652344 C 41.292969 88.652344 39.222656 88.058594 37.378906 86.875 C 35.535156 85.652344 34.070312 83.910156 32.992188 81.640625 C 31.949219 79.339844 31.429688 76.636719 31.429688 73.53125 Z M 51.730469 73.53125 C 51.730469 71.960938 51.328125 70.742188 50.527344 69.871094 C 49.730469 68.996094 48.703125 68.5625 47.449219 68.5625 C 46.199219 68.5625 45.171875 68.996094 44.371094 69.871094 C 43.570312 70.742188 43.171875 71.960938 43.171875 73.53125 C 43.171875 75.101562 43.570312 76.324219 44.371094 77.195312 C 45.171875 78.066406 46.199219 78.503906 47.449219 78.503906 C 48.703125 78.503906 49.730469 78.066406 50.527344 77.195312 C 51.328125 76.324219 51.730469 75.101562 51.730469 73.53125 Z M 66.902344 73.53125 C 66.902344 70.429688 67.421875 67.742188 68.464844 65.476562 C 69.542969 63.171875 71.007812 61.429688 72.851562 60.242188 C 74.695312 59.023438 76.765625 58.414062 79.058594 58.414062 C 80.972656 58.414062 82.609375 58.8125 83.964844 59.617188 C 85.359375 60.382812 86.417969 61.445312 87.148438 62.808594 L 87.148438 49.570312 L 98.734375 49.570312 L 98.734375 88.285156 L 87.148438 88.285156 L 87.148438 84.257812 C 86.417969 85.617188 85.359375 86.699219 83.964844 87.5 C 82.609375 88.269531 80.972656 88.652344 79.058594 88.652344 C 76.765625 88.652344 74.695312 88.058594 72.851562 86.875 C 71.007812 85.652344 69.542969 83.910156 68.464844 81.640625 C 67.421875 79.339844 66.902344 76.636719 66.902344 73.53125 Z M 87.203125 73.53125 C 87.203125 71.960938 86.800781 70.742188 86 69.871094 C 85.203125 68.996094 84.175781 68.5625 82.921875 68.5625 C 81.671875 68.5625 80.644531 68.996094 79.84375 69.871094 C 79.042969 70.742188 78.644531 71.960938 78.644531 73.53125 C 78.644531 75.101562 79.042969 76.324219 79.84375 77.195312 C 80.644531 78.066406 81.671875 78.503906 82.921875 78.503906 C 84.175781 78.503906 85.203125 78.066406 86 77.195312 C 86.800781 76.324219 87.203125 75.101562 87.203125 73.53125 Z M 109.785156 56.425781 C 107.765625 56.425781 106.148438 55.882812 104.929688 54.800781 C 103.710938 53.722656 103.101562 52.359375 103.101562 50.722656 C 103.101562 49.046875 103.710938 47.671875 104.929688 46.589844 C 106.148438 45.472656 107.765625 44.914062 109.785156 44.914062 C 111.765625 44.914062 113.367188 45.472656 114.585938 46.589844 C 115.800781 47.671875 116.410156 49.046875 116.410156 50.722656 C 116.410156 52.359375 115.800781 53.722656 114.585938 54.800781 C 113.367188 55.882812 111.765625 56.425781 109.785156 56.425781 Z M 115.523438 58.777344 L 115.523438 88.285156 L 103.9375 88.285156 L 103.9375 58.777344 Z M 140.949219 51.246094 L 140.949219 72.121094 C 140.949219 73.828125 141.316406 75.1875 142.046875 76.199219 C 142.8125 77.175781 144.03125 77.664062 145.699219 77.664062 C 147.371094 77.664062 148.605469 77.175781 149.40625 76.199219 C 150.207031 75.1875 150.605469 73.828125 150.605469 72.121094 L 150.605469 51.246094 L 162.140625 51.246094 L 162.140625 72.121094 C 162.140625 75.640625 161.410156 78.660156 159.945312 81.171875 C 158.484375 83.648438 156.484375 85.511719 153.945312 86.769531 C 151.40625 88.023438 148.570312 88.652344 145.4375 88.652344 C 142.308594 88.652344 139.523438 88.023438 137.089844 86.769531 C 134.6875 85.511719 132.808594 83.648438 131.453125 81.171875 C 130.09375 78.695312 129.417969 75.675781 129.417969 72.121094 L 129.417969 51.246094 Z M 165.570312 73.53125 C 165.570312 70.429688 166.09375 67.742188 167.136719 65.476562 C 168.214844 63.171875 169.675781 61.429688 171.519531 60.242188 C 173.363281 59.023438 175.433594 58.414062 177.730469 58.414062 C 179.644531 58.414062 181.296875 58.8125 182.6875 59.617188 C 184.082031 60.382812 185.140625 61.445312 185.871094 62.808594 L 185.871094 58.777344 L 197.40625 58.777344 L 197.40625 88.285156 L 185.871094 88.285156 L 185.871094 84.257812 C 185.140625 85.617188 184.082031 86.699219 182.6875 87.5 C 181.296875 88.269531 179.644531 88.652344 177.730469 88.652344 C 175.433594 88.652344 173.363281 88.058594 171.519531 86.875 C 169.675781 85.652344 168.214844 83.910156 167.136719 81.640625 C 166.09375 79.339844 165.570312 76.636719 165.570312 73.53125 Z M 185.871094 73.53125 C 185.871094 71.960938 185.472656 70.742188 184.671875 69.871094 C 183.871094 68.996094 182.84375 68.5625 181.59375 68.5625 C 180.339844 68.5625 179.3125 68.996094 178.511719 69.871094 C 177.714844 70.742188 177.3125 71.960938 177.3125 73.53125 C 177.3125 75.101562 177.714844 76.324219 178.511719 77.195312 C 179.3125 78.066406 180.339844 78.503906 181.59375 78.503906 C 182.84375 78.503906 183.871094 78.066406 184.671875 77.195312 C 185.472656 76.324219 185.871094 75.101562 185.871094 73.53125 Z M 223.222656 58.570312 C 226.597656 58.570312 229.226562 59.703125 231.105469 61.96875 C 233.015625 64.238281 233.972656 67.304688 233.972656 71.179688 L 233.972656 88.285156 L 222.441406 88.285156 L 222.441406 72.644531 C 222.441406 71.246094 222.058594 70.148438 221.292969 69.347656 C 220.5625 68.507812 219.570312 68.089844 218.316406 68.089844 C 217.03125 68.089844 216.019531 68.507812 215.289062 69.347656 C 214.558594 70.148438 214.195312 71.246094 214.195312 72.644531 L 214.195312 88.285156 L 202.609375 88.285156 L 202.609375 58.777344 L 214.195312 58.777344 L 214.195312 63.277344 C 215.097656 61.882812 216.300781 60.75 217.796875 59.878906 C 219.328125 59.003906 221.136719 58.570312 223.222656 58.570312 Z M 249.59375 58.414062 C 251.503906 58.414062 253.160156 58.8125 254.550781 59.617188 C 255.941406 60.382812 257.003906 61.445312 257.734375 62.808594 L 257.734375 58.777344 L 269.265625 58.777344 L 269.265625 87.761719 C 269.265625 90.519531 268.761719 93.027344 267.753906 95.296875 C 266.746094 97.5625 265.109375 99.378906 262.847656 100.738281 C 260.621094 102.097656 257.75 102.777344 254.238281 102.777344 C 249.503906 102.777344 245.746094 101.660156 242.964844 99.429688 C 240.214844 97.230469 238.648438 94.234375 238.265625 90.429688 L 249.644531 90.429688 C 249.957031 91.964844 251.210938 92.734375 253.402344 92.734375 C 254.757812 92.734375 255.820312 92.382812 256.585938 91.6875 C 257.351562 90.988281 257.734375 89.679688 257.734375 87.761719 L 257.734375 84.257812 C 257.003906 85.617188 255.941406 86.699219 254.550781 87.5 C 253.160156 88.269531 251.503906 88.652344 249.59375 88.652344 C 247.296875 88.652344 245.226562 88.058594 243.382812 86.875 C 241.539062 85.652344 240.078125 83.910156 238.996094 81.640625 C 237.953125 79.339844 237.433594 76.636719 237.433594 73.53125 C 237.433594 70.429688 237.953125 67.742188 238.996094 65.476562 C 240.078125 63.171875 241.539062 61.429688 243.382812 60.242188 C 245.226562 59.023438 247.296875 58.414062 249.59375 58.414062 Z M 257.734375 73.53125 C 257.734375 71.960938 257.332031 70.742188 256.535156 69.871094 C 255.734375 68.996094 254.707031 68.5625 253.453125 68.5625 C 252.203125 68.5625 251.175781 68.996094 250.375 69.871094 C 249.574219 70.742188 249.175781 71.960938 249.175781 73.53125 C 249.175781 75.101562 249.574219 76.324219 250.375 77.195312 C 251.175781 78.066406 252.203125 78.503906 253.453125 78.503906 C 254.707031 78.503906 255.734375 78.066406 256.535156 77.195312 C 257.332031 76.324219 257.734375 75.101562 257.734375 73.53125 Z M 286.054688 47.84375 C 289.917969 47.84375 293.015625 48.820312 295.34375 50.773438 C 297.710938 52.691406 298.894531 55.515625 298.894531 59.25 C 298.894531 62.320312 297.851562 64.796875 295.761719 66.679688 C 293.710938 68.5625 291.015625 69.539062 287.675781 69.609375 L 287.359375 73.324219 L 277.132812 73.324219 L 276.820312 62.230469 L 281.203125 62.230469 C 283.253906 62.230469 284.820312 62.003906 285.898438 61.550781 C 287.011719 61.097656 287.570312 60.367188 287.570312 59.355469 C 287.570312 58.691406 287.394531 58.1875 287.046875 57.835938 C 286.734375 57.453125 286.300781 57.261719 285.742188 57.261719 C 285.046875 57.261719 284.523438 57.488281 284.175781 57.941406 C 283.863281 58.359375 283.707031 58.917969 283.707031 59.617188 L 272.800781 59.617188 C 272.695312 57.453125 273.113281 55.484375 274.050781 53.703125 C 275.027344 51.925781 276.523438 50.511719 278.539062 49.464844 C 280.558594 48.386719 283.0625 47.84375 286.054688 47.84375 Z M 282.402344 88.703125 C 280.386719 88.703125 278.765625 88.164062 277.550781 87.082031 C 276.332031 86 275.722656 84.640625 275.722656 83 C 275.722656 81.328125 276.332031 79.949219 277.550781 78.867188 C 278.765625 77.753906 280.386719 77.195312 282.402344 77.195312 C 284.386719 77.195312 285.988281 77.753906 287.203125 78.867188 C 288.421875 79.949219 289.03125 81.328125 289.03125 83 C 289.03125 84.640625 288.421875 86 287.203125 87.082031 C 285.988281 88.164062 284.386719 88.703125 282.402344 88.703125 Z M 282.402344 88.703125 "/>
</g>
</svg>
